<svg xmlns="http://www.w3.org/2000/svg" viewBox="0 0 1000 1000"><defs><clipPath id="a"><path d="M0 0h1000v1000H0z"/></clipPath></defs><g clip-path="url(#a)" style="display:block"><path fill="#FFF" d="M191.255 245.009c1.97-5.258 2.949-13.621 2.949-25.088 0-8.012-.237-14.21-.711-18.613-.464-4.392-1.764-7.919-3.888-10.6-2.114-2.661-5.372-4.001-9.765-4.001-3.3 0-6.249.865-8.837 2.597-2.588 1.722-4.599 3.765-6.012 6.116v30.389c0 18.056 5.022 27.089 15.076 27.089 5.496 0 9.229-2.63 11.188-7.889m-50.403 18.014q-12.604-16.952-12.602-45.69v-67.841c0-20.727 3.775-36.782 11.313-48.167 7.527-11.394 20.798-17.075 39.803-17.075 16.963 0 29.202 4 36.74 12.002 7.538 8.011 11.385 20.107 11.539 36.276l.237 3.301h-34.616c0-8.796-.866-14.963-2.598-18.489-1.733-3.537-5.342-5.3-10.828-5.3-3.929 0-6.95 1.175-9.074 3.537-2.124 2.351-3.609 6.28-4.476 11.776-.865 5.496-1.299 13.27-1.299 23.313v19.315c2.042-3.454 5.341-6.156 9.9-8.125 4.547-1.959 9.734-2.94 15.54-2.94 14.136 0 24.387 4.909 30.738 14.715 6.363 9.817 9.539 23.202 9.539 40.165 0 21.046-3.929 37.338-11.766 48.877-7.857 11.539-20.974 17.313-39.339 17.313-17.438 0-30.358-5.651-38.751-16.963m189.79-102.737c-3.135 0-5.909-.392-8.312-1.186s-4.393-1.887-5.96-3.3c-1.567-1.402-2.846-3.145-3.825-5.228a25.3 25.3 0 0 1-2.063-6.713c-.402-2.382-.599-5.073-.599-8.064v-25.418c0-3.165.207-5.97.62-8.424.402-2.444 1.092-4.723 2.061-6.817q1.454-3.14 3.806-5.165c1.567-1.352 3.547-2.403 5.939-3.166 2.393-.764 5.167-1.145 8.333-1.145 3.629 0 6.744.485 9.322 1.454s4.618 2.392 6.113 4.269c1.496 1.866 2.579 4.063 3.249 6.569.681 2.505 1.021 5.434 1.021 8.775v6.238h-12.796v-6.197c0-3.63-.197-6.084-.578-7.342-.763-2.465-2.619-3.785-5.579-3.96h-.701c-1.124 0-2.093.134-2.928.403-.836.257-1.516.67-2.042 1.248a7.6 7.6 0 0 0-1.28 1.825c-.33.638-.567 1.484-.732 2.526q-.233 1.561-.298 2.877c-.052.886-.073 2-.073 3.351v30.873c0 4.28.537 7.321 1.61 9.147 1.062 1.815 2.98 2.722 5.743 2.722.928 0 1.752-.113 2.474-.33.722-.226 1.321-.494 1.806-.835q.726-.51 1.237-1.454c.33-.629.588-1.217.763-1.753.175-.547.309-1.299.401-2.269.082-.969.135-1.783.146-2.464.02-.67.031-1.598.031-2.764v-6.516h12.796v5.98c0 2.733-.196 5.177-.577 7.342-.381 2.176-1.032 4.218-1.96 6.115-.918 1.907-2.114 3.496-3.578 4.754q-2.196 1.887-5.63 2.97c-2.289.711-4.939 1.072-7.96 1.072m28.441-.877V86.495h13.28v63.726h17.458v9.188zm37.329 0V86.495h30.512v9.373h-17.232v20.922h13.633v9.374h-13.633v24.057h17.459v9.188zm51.085-25.594h9.766l-4.888-29.945zm-16.931 25.594 14.817-72.914h13.849l14.787 72.914h-12.364l-2.949-16.932h-12.621l-2.981 16.932zm50.167 0V86.495h9.146l17.85 41.298V86.495h11.003v72.914h-8.714l-18.025-43.402v43.402zm77.908 0-10.426-72.914h11.178l5.98 47.011 7.776-47.011h8.929l7.961 47.052 5.982-47.052h10.95l-10.425 72.914h-10.6l-8.219-48.682-8.188 48.682zm67.139-25.594h9.765l-4.888-29.945zm-16.931 25.594 14.816-72.914h13.859l14.777 72.914h-12.363l-2.95-16.932h-12.62l-2.982 16.932zm54.734 0V96.301h-12.229v-9.806h37.338v9.806h-11.828v63.108zm30.469 0V86.495h30.522v9.373h-17.241v20.922h13.632v9.374h-13.632v24.057h17.457v9.188zm51.224-41.783h3.207c3.929 0 6.723-.836 8.373-2.506 1.66-1.66 2.486-4.526 2.486-8.569 0-3.898-.712-6.692-2.146-8.373q-2.164-2.537-7.918-2.537h-4.002zm-13.28 41.783V86.495H748.7q5.77.002 9.899.949c2.753.628 5.145 1.68 7.187 3.165s3.568 3.486 4.578 6.022 1.518 5.641 1.518 9.301c0 4.579-.683 8.312-2.054 11.209q-2.04 4.362-6.743 6.342l10.115 35.926h-13.322l-8.714-33.286h-5.888v33.286zm-407.773 93.567h9.765l-4.888-29.945zm-16.932 25.594 14.817-72.914h13.85l14.787 72.914H338.38l-2.949-16.932H322.81l-2.991 16.932zm50.168 0v-72.914h9.145l17.85 41.298v-41.298h11.003v72.914h-8.714l-18.025-43.402v43.402zm61.729-9.322h3.776c1.319 0 2.484-.113 3.474-.35q1.5-.357 2.505-.835c.681-.32 1.248-.856 1.702-1.589.453-.732.793-1.402 1.031-2.021q.355-.925.526-2.794c.113-1.248.196-2.31.216-3.186.031-.877.053-2.187.053-3.908v-26.657c0-1.722-.032-3.124-.094-4.176a21 21 0 0 0-.422-3.186c-.217-1.073-.537-1.897-.96-2.485q-.634-.882-1.702-1.609c-.701-.485-1.576-.825-2.628-1.01-1.052-.196-2.331-.289-3.826-.289h-3.651zm-13.28 9.322v-72.914h16.973c4.392 0 8.073.443 11.032 1.32 2.97.886 5.343 2.279 7.127 4.176q2.69 2.861 3.804 7.022c.753 2.764 1.124 6.167 1.124 10.219v26.295c0 4.166-.381 7.703-1.143 10.6-.764 2.908-2.022 5.363-3.754 7.384-1.753 2.031-4.075 3.516-6.982 4.475-2.898.949-6.454 1.423-10.682 1.423zm89.295.877c-12.839 0-19.584-7.413-20.233-22.251l11.57-2.414c.289 9.642 3.052 14.467 8.27 14.467 2.021 0 3.516-.618 4.506-1.845.98-1.237 1.475-2.887 1.475-4.97 0-2.031-.371-3.877-1.104-5.568-.732-1.681-1.588-3.063-2.547-4.135-.969-1.062-2.351-2.394-4.135-3.982l-9.59-8.31c-2.815-2.454-4.908-5.012-6.29-7.672-1.381-2.65-2.061-5.97-2.061-9.961 0-5.651 1.659-10.055 4.99-13.19 3.32-3.135 7.888-4.732 13.693-4.794q4.008-.047 7.085.99c2.052.691 3.744 1.608 5.083 2.773q1.999 1.732 3.331 4.332a23 23 0 0 1 2.001 5.383c.443 1.866.753 3.939.929 6.228l-11.344 2.238c-.062-1.464-.155-2.744-.289-3.827a22 22 0 0 0-.68-3.299c-.32-1.113-.742-2.011-1.247-2.701-.516-.692-1.206-1.239-2.073-1.651-.866-.413-1.867-.567-3.012-.484-1.969.123-3.464.772-4.505 1.958s-1.569 2.775-1.569 4.775q0 3.515 1.392 5.775c.918 1.516 2.362 3.135 4.332 4.867l9.497 8.26c1.578 1.444 2.96 2.836 4.136 4.187 1.176 1.34 2.288 2.887 3.36 4.609q1.609 2.598 2.444 5.723c.557 2.083.835 4.279.835 6.599 0 5.301-1.68 9.611-5.042 12.921-3.351 3.321-7.753 4.969-13.208 4.969m38.731-26.471h9.766l-4.888-29.945zm-16.931 25.594 14.817-72.914h13.859l14.777 72.914h-12.364l-2.949-16.932h-12.621l-2.981 16.932zm50.169 0v-72.914h9.146l17.849 41.298v-41.298h11.003v72.914h-8.714l-18.035-43.402v43.402zm48.84-72.908h13.106v72.914h-13.106zm30.996 72.908v-63.108h-12.23v-9.806h37.339v9.806h-11.828v63.108zm43.264-25.594h9.765l-4.887-29.945zM673.34 278.57l14.817-72.914h13.849l14.788 72.914H704.43l-2.949-16.932h-12.622l-2.98 16.932zm54.738 0v-63.108h-12.229v-9.806h37.338v9.806h-11.828v63.108zm30.855-72.908h13.104v72.914h-13.104zm40.389 63.37c.927.382 2.031.568 3.32.568s2.393-.186 3.299-.568c.908-.381 1.63-.886 2.176-1.505.546-.608.969-1.413 1.279-2.413.299-1 .505-1.99.608-2.99q.156-1.501.155-3.558v-33.121c0-1.753-.083-3.217-.258-4.393a11.1 11.1 0 0 0-1.041-3.32 4.95 4.95 0 0 0-2.3-2.331c-1.031-.516-2.33-.773-3.918-.773s-2.897.257-3.939.773c-1.042.505-1.805 1.289-2.3 2.331a11.4 11.4 0 0 0-1.021 3.32c-.175 1.176-.258 2.64-.258 4.393v33.121q0 2.057.155 3.558c.103 1 .309 1.99.619 2.99.299 1 .722 1.805 1.248 2.413.525.619 1.258 1.124 2.176 1.505m3.32 10.415c-7.508 0-12.89-2.031-16.138-6.115-3.258-4.073-4.878-10.033-4.878-17.89v-26.914c0-3.877.361-7.228 1.093-10.075.733-2.835 1.918-5.31 3.537-7.383 1.629-2.082 3.805-3.65 6.538-4.682 2.722-1.041 6.012-1.567 9.848-1.567 7.476 0 12.848 2.011 16.117 6.022 3.269 4.022 4.907 9.91 4.907 17.685v26.914c0 3.805-.38 7.156-1.123 10.044q-1.13 4.33-3.557 7.516c-1.63 2.125-3.806 3.734-6.537 4.816-2.723 1.093-5.992 1.629-9.807 1.629m30.289-.877v-72.914h9.146l17.849 41.298v-41.298h11.003v72.914h-8.714l-18.024-43.402v43.402zM707.964 481.7c-9.879-4.352-22.408-2.784-34.441 2.083-45.248 18.345-76.039 24.944-123.638 10.033-29.966-9.373-58.013-29.027-91.156-17.056-21.995 7.91-42.494 15.458-67.366 15.262l-14.364-73.646h341.297zM592.287 700.392s-16.571 17.024-43.516 15.178c-27.017 1.846-43.567-15.178-43.567-15.178-27.315-27.296-17.571-61.252-8.063-78.803 5.878-10.992 47.846-74.027 51.455-79.39v-.423l.175.196.145-.196v.423c3.505 5.363 45.557 68.398 51.424 79.39 9.529 17.551 19.242 51.507-8.053 78.803m140.941-296.659a4.4 4.4 0 0 0-3.3-1.444H365.253a4.4 4.4 0 0 0-3.279 1.444c-.804 1.021-1.113 2.279-.918 3.455l61.273 370.551c.34 2.053 2.134 3.578 4.207 3.578h75.193l5.145 60.345-31.646.041 73.626 73.626 73.811-73.791-31.636.031 5.135-60.252h76.524c2.102 0 3.866-1.525 4.186-3.639l57.324-370.49c.195-1.279-.187-2.496-.97-3.455"/></g></svg>